<svg width="88" height="24" viewBox="0 0 88 24" fill="none" xmlns="http://www.w3.org/2000/svg">
<path d="M12 12V0H24L12 12Z" fill="black"/>
<path d="M12 0V12H0C0 5.37333 5.37333 0 12 0Z" fill="black"/>
<path d="M12 12L12 24H0L12 12Z" fill="black"/>
<path d="M12 24L12 12L24 12C24 18.6267 18.6267 24 12 24Z" fill="black"/>
<path d="M40.4814 16.5V18.3984H33.6787V16.5H40.4814ZM34.417 5.60156V18.3984H32V5.60156H34.417ZM39.5938 10.8838V12.7383H33.6787V10.8838H39.5938ZM40.4551 5.60156V7.50879H33.6787V5.60156H40.4551Z" fill="black"/>
<path d="M48.8574 15.0762C48.8574 14.8301 48.8193 14.6104 48.7432 14.417C48.6729 14.2178 48.541 14.0391 48.3477 13.8809C48.1602 13.7168 47.8936 13.5586 47.5479 13.4062C47.208 13.248 46.7686 13.084 46.2295 12.9141C45.6318 12.7266 45.0752 12.5156 44.5596 12.2812C44.0439 12.0469 43.5898 11.7744 43.1973 11.4639C42.8105 11.1533 42.5088 10.7959 42.292 10.3916C42.0752 9.98145 41.9668 9.50684 41.9668 8.96777C41.9668 8.44043 42.0781 7.95996 42.3008 7.52637C42.5293 7.09277 42.8516 6.7207 43.2676 6.41016C43.6836 6.09375 44.1729 5.85059 44.7354 5.68066C45.3037 5.51074 45.9307 5.42578 46.6162 5.42578C47.5654 5.42578 48.3857 5.59863 49.0771 5.94434C49.7744 6.29004 50.3135 6.75879 50.6943 7.35059C51.0752 7.94238 51.2656 8.60742 51.2656 9.3457H48.8574C48.8574 8.94727 48.7725 8.5957 48.6025 8.29102C48.4385 7.98633 48.1865 7.74609 47.8467 7.57031C47.5127 7.39453 47.0908 7.30664 46.5811 7.30664C46.0889 7.30664 45.6787 7.37988 45.3506 7.52637C45.0283 7.67285 44.7852 7.87207 44.6211 8.12402C44.4629 8.37598 44.3838 8.65723 44.3838 8.96777C44.3838 9.20215 44.4395 9.41309 44.5508 9.60059C44.6621 9.78223 44.8291 9.95508 45.0518 10.1191C45.2744 10.2773 45.5498 10.4268 45.8779 10.5674C46.2119 10.7021 46.5986 10.8369 47.0381 10.9717C47.7412 11.1826 48.3564 11.417 48.8838 11.6748C49.417 11.9326 49.8594 12.2256 50.2109 12.5537C50.5684 12.8818 50.835 13.251 51.0107 13.6611C51.1924 14.0713 51.2832 14.5371 51.2832 15.0586C51.2832 15.6094 51.1748 16.1016 50.958 16.5352C50.7412 16.9688 50.4307 17.3379 50.0264 17.6426C49.6221 17.9473 49.1357 18.1787 48.5674 18.3369C48.0049 18.4951 47.375 18.5742 46.6777 18.5742C46.0566 18.5742 45.4414 18.4922 44.832 18.3281C44.2285 18.1582 43.6807 17.9062 43.1885 17.5723C42.6963 17.2324 42.3037 16.8047 42.0107 16.2891C41.7178 15.7676 41.5713 15.1582 41.5713 14.4609H43.9971C43.9971 14.8652 44.0615 15.2109 44.1904 15.498C44.3252 15.7793 44.5127 16.0107 44.7529 16.1924C44.999 16.3682 45.2861 16.4971 45.6143 16.5791C45.9424 16.6611 46.2969 16.7021 46.6777 16.7021C47.1699 16.7021 47.5742 16.6348 47.8906 16.5C48.2129 16.3594 48.4531 16.166 48.6113 15.9199C48.7754 15.6738 48.8574 15.3926 48.8574 15.0762Z" fill="black"/>
<path d="M61.6367 10.8838V12.7822H54.9043V10.8838H61.6367ZM55.5635 5.60156V18.3984H53.1465V5.60156H55.5635ZM63.4297 5.60156V18.3984H61.0127V5.60156H63.4297Z" fill="black"/>
<path d="M76.2529 11.6748V12.334C76.2529 13.3008 76.124 14.1709 75.8662 14.9443C75.6084 15.7119 75.2422 16.3652 74.7676 16.9043C74.293 17.4434 73.7275 17.8564 73.0713 18.1436C72.415 18.4307 71.6855 18.5742 70.8828 18.5742C70.0918 18.5742 69.3652 18.4307 68.7031 18.1436C68.0469 17.8564 67.4785 17.4434 66.998 16.9043C66.5176 16.3652 66.1455 15.7119 65.8818 14.9443C65.6182 14.1709 65.4863 13.3008 65.4863 12.334V11.6748C65.4863 10.7021 65.6182 9.83203 65.8818 9.06445C66.1455 8.29688 66.5146 7.64355 66.9893 7.10449C67.4639 6.55957 68.0293 6.14355 68.6855 5.85645C69.3477 5.56934 70.0742 5.42578 70.8652 5.42578C71.668 5.42578 72.3975 5.56934 73.0537 5.85645C73.71 6.14355 74.2754 6.55957 74.75 7.10449C75.2305 7.64355 75.5996 8.29688 75.8574 9.06445C76.1211 9.83203 76.2529 10.7021 76.2529 11.6748ZM73.8096 12.334V11.6572C73.8096 10.96 73.7451 10.3477 73.6162 9.82031C73.4873 9.28711 73.2969 8.83887 73.0449 8.47559C72.793 8.1123 72.4824 7.83984 72.1133 7.6582C71.7441 7.4707 71.3281 7.37695 70.8652 7.37695C70.3965 7.37695 69.9805 7.4707 69.6172 7.6582C69.2598 7.83984 68.9551 8.1123 68.7031 8.47559C68.4512 8.83887 68.2578 9.28711 68.123 9.82031C67.9941 10.3477 67.9297 10.96 67.9297 11.6572V12.334C67.9297 13.0254 67.9941 13.6377 68.123 14.1709C68.2578 14.7041 68.4512 15.1553 68.7031 15.5244C68.9609 15.8877 69.2715 16.1631 69.6348 16.3506C69.998 16.5381 70.4141 16.6318 70.8828 16.6318C71.3516 16.6318 71.7676 16.5381 72.1309 16.3506C72.4941 16.1631 72.7988 15.8877 73.0449 15.5244C73.2969 15.1553 73.4873 14.7041 73.6162 14.1709C73.7451 13.6377 73.8096 13.0254 73.8096 12.334Z" fill="black"/>
<path d="M83.2227 13.7314H79.9268V11.833H83.2227C83.7617 11.833 84.1982 11.7451 84.5322 11.5693C84.8721 11.3877 85.1211 11.1416 85.2793 10.8311C85.4375 10.5146 85.5166 10.1543 85.5166 9.75C85.5166 9.35742 85.4375 8.99121 85.2793 8.65137C85.1211 8.31152 84.8721 8.03613 84.5322 7.8252C84.1982 7.61426 83.7617 7.50879 83.2227 7.50879H80.7178V18.3984H78.3008V5.60156H83.2227C84.2188 5.60156 85.0684 5.78027 85.7715 6.1377C86.4805 6.48926 87.0195 6.97852 87.3887 7.60547C87.7637 8.22656 87.9512 8.93555 87.9512 9.73242C87.9512 10.5586 87.7637 11.2705 87.3887 11.8682C87.0195 12.4658 86.4805 12.9258 85.7715 13.248C85.0684 13.5703 84.2188 13.7314 83.2227 13.7314Z" fill="black"/>
</svg>
