<svg width="86" height="22" viewBox="0 0 86 22" fill="none" xmlns="http://www.w3.org/2000/svg">
<path d="M5.72168 14.4951L8.91211 4.20312H11.5928L7.0752 17H5.29102L5.72168 14.4951ZM2.77734 4.20312L5.9502 14.4951L6.40723 17H4.60547L0.105469 4.20312H2.77734ZM20.0303 4.20312H22.4473V12.7021C22.4473 13.6807 22.2363 14.5039 21.8145 15.1719C21.3926 15.834 20.8184 16.335 20.0918 16.6748C19.3652 17.0088 18.5391 17.1758 17.6133 17.1758C16.6758 17.1758 15.8408 17.0088 15.1084 16.6748C14.376 16.335 13.8018 15.834 13.3857 15.1719C12.9697 14.5039 12.7617 13.6807 12.7617 12.7021V4.20312H15.1787V12.7021C15.1787 13.2998 15.2783 13.7891 15.4775 14.1699C15.6768 14.5449 15.958 14.8232 16.3213 15.0049C16.6846 15.1865 17.1152 15.2773 17.6133 15.2773C18.1172 15.2773 18.5479 15.1865 18.9053 15.0049C19.2686 14.8232 19.5469 14.5449 19.7402 14.1699C19.9336 13.7891 20.0303 13.2998 20.0303 12.7021V4.20312ZM33.2227 15.1016V17H26.4199V15.1016H33.2227ZM27.1582 4.20312V17H24.7412V4.20312H27.1582ZM32.335 9.48535V11.3398H26.4199V9.48535H32.335ZM33.1963 4.20312V6.11035H26.4199V4.20312H33.1963ZM46.0811 13.6777C46.0811 13.4316 46.043 13.2119 45.9668 13.0186C45.8965 12.8193 45.7646 12.6406 45.5713 12.4824C45.3838 12.3184 45.1172 12.1602 44.7715 12.0078C44.4316 11.8496 43.9922 11.6855 43.4531 11.5156C42.8555 11.3281 42.2988 11.1172 41.7832 10.8828C41.2676 10.6484 40.8135 10.376 40.4209 10.0654C40.0342 9.75488 39.7324 9.39746 39.5156 8.99316C39.2988 8.58301 39.1904 8.1084 39.1904 7.56934C39.1904 7.04199 39.3018 6.56152 39.5244 6.12793C39.7529 5.69434 40.0752 5.32227 40.4912 5.01172C40.9072 4.69531 41.3965 4.45215 41.959 4.28223C42.5273 4.1123 43.1543 4.02734 43.8398 4.02734C44.7891 4.02734 45.6094 4.2002 46.3008 4.5459C46.998 4.8916 47.5371 5.36035 47.918 5.95215C48.2988 6.54395 48.4893 7.20898 48.4893 7.94727H46.0811C46.0811 7.54883 45.9961 7.19727 45.8262 6.89258C45.6621 6.58789 45.4102 6.34766 45.0703 6.17188C44.7363 5.99609 44.3145 5.9082 43.8047 5.9082C43.3125 5.9082 42.9023 5.98145 42.5742 6.12793C42.252 6.27441 42.0088 6.47363 41.8447 6.72559C41.6865 6.97754 41.6074 7.25879 41.6074 7.56934C41.6074 7.80371 41.6631 8.01465 41.7744 8.20215C41.8857 8.38379 42.0527 8.55664 42.2754 8.7207C42.498 8.87891 42.7734 9.02832 43.1016 9.16895C43.4355 9.30371 43.8223 9.43848 44.2617 9.57324C44.9648 9.78418 45.5801 10.0186 46.1074 10.2764C46.6406 10.5342 47.083 10.8271 47.4346 11.1553C47.792 11.4834 48.0586 11.8525 48.2344 12.2627C48.416 12.6729 48.5068 13.1387 48.5068 13.6602C48.5068 14.2109 48.3984 14.7031 48.1816 15.1367C47.9648 15.5703 47.6543 15.9395 47.25 16.2441C46.8457 16.5488 46.3594 16.7803 45.791 16.9385C45.2285 17.0967 44.5986 17.1758 43.9014 17.1758C43.2803 17.1758 42.665 17.0938 42.0557 16.9297C41.4521 16.7598 40.9043 16.5078 40.4121 16.1738C39.9199 15.834 39.5273 15.4062 39.2344 14.8906C38.9414 14.3691 38.7949 13.7598 38.7949 13.0625H41.2207C41.2207 13.4668 41.2852 13.8125 41.4141 14.0996C41.5488 14.3809 41.7363 14.6123 41.9766 14.7939C42.2227 14.9697 42.5098 15.0986 42.8379 15.1807C43.166 15.2627 43.5205 15.3037 43.9014 15.3037C44.3936 15.3037 44.7979 15.2363 45.1143 15.1016C45.4365 14.9609 45.6768 14.7676 45.835 14.5215C45.999 14.2754 46.0811 13.9941 46.0811 13.6777ZM58.8604 9.48535V11.3838H52.1279V9.48535H58.8604ZM52.7871 4.20312V17H50.3701V4.20312H52.7871ZM60.6533 4.20312V17H58.2363V4.20312H60.6533ZM73.4766 10.2764V10.9355C73.4766 11.9023 73.3477 12.7725 73.0898 13.5459C72.832 14.3135 72.4658 14.9668 71.9912 15.5059C71.5166 16.0449 70.9512 16.458 70.2949 16.7451C69.6387 17.0322 68.9092 17.1758 68.1064 17.1758C67.3154 17.1758 66.5889 17.0322 65.9268 16.7451C65.2705 16.458 64.7021 16.0449 64.2217 15.5059C63.7412 14.9668 63.3691 14.3135 63.1055 13.5459C62.8418 12.7725 62.71 11.9023 62.71 10.9355V10.2764C62.71 9.30371 62.8418 8.43359 63.1055 7.66602C63.3691 6.89844 63.7383 6.24512 64.2129 5.70605C64.6875 5.16113 65.2529 4.74512 65.9092 4.45801C66.5713 4.1709 67.2979 4.02734 68.0889 4.02734C68.8916 4.02734 69.6211 4.1709 70.2773 4.45801C70.9336 4.74512 71.499 5.16113 71.9736 5.70605C72.4541 6.24512 72.8232 6.89844 73.0811 7.66602C73.3447 8.43359 73.4766 9.30371 73.4766 10.2764ZM71.0332 10.9355V10.2588C71.0332 9.56152 70.9688 8.94922 70.8398 8.42188C70.7109 7.88867 70.5205 7.44043 70.2686 7.07715C70.0166 6.71387 69.7061 6.44141 69.3369 6.25977C68.9678 6.07227 68.5518 5.97852 68.0889 5.97852C67.6201 5.97852 67.2041 6.07227 66.8408 6.25977C66.4834 6.44141 66.1787 6.71387 65.9268 7.07715C65.6748 7.44043 65.4814 7.88867 65.3467 8.42188C65.2178 8.94922 65.1533 9.56152 65.1533 10.2588V10.9355C65.1533 11.627 65.2178 12.2393 65.3467 12.7725C65.4814 13.3057 65.6748 13.7568 65.9268 14.126C66.1846 14.4893 66.4951 14.7646 66.8584 14.9521C67.2217 15.1396 67.6377 15.2334 68.1064 15.2334C68.5752 15.2334 68.9912 15.1396 69.3545 14.9521C69.7178 14.7646 70.0225 14.4893 70.2686 14.126C70.5205 13.7568 70.7109 13.3057 70.8398 12.7725C70.9688 12.2393 71.0332 11.627 71.0332 10.9355ZM80.4463 12.333H77.1504V10.4346H80.4463C80.9854 10.4346 81.4219 10.3467 81.7559 10.1709C82.0957 9.98926 82.3447 9.74316 82.5029 9.43262C82.6611 9.11621 82.7402 8.75586 82.7402 8.35156C82.7402 7.95898 82.6611 7.59277 82.5029 7.25293C82.3447 6.91309 82.0957 6.6377 81.7559 6.42676C81.4219 6.21582 80.9854 6.11035 80.4463 6.11035H77.9414V17H75.5244V4.20312H80.4463C81.4424 4.20312 82.292 4.38184 82.9951 4.73926C83.7041 5.09082 84.2432 5.58008 84.6123 6.20703C84.9873 6.82813 85.1748 7.53711 85.1748 8.33398C85.1748 9.16016 84.9873 9.87207 84.6123 10.4697C84.2432 11.0674 83.7041 11.5273 82.9951 11.8496C82.292 12.1719 81.4424 12.333 80.4463 12.333Z" fill="black"/>
</svg>
